G04 #@! TF.GenerationSoftware,KiCad,Pcbnew,(2018-01-11 revision 6f2beeb)-master*
G04 #@! TF.CreationDate,2018-01-16T00:17:09+01:00*
G04 #@! TF.ProjectId,4pin100mil,3470696E3130306D696C2E6B69636164,rev?*
G04 #@! TF.SameCoordinates,Original*
G04 #@! TF.FileFunction,Legend,Bot*
G04 #@! TF.FilePolarity,Positive*
%FSLAX46Y46*%
G04 Gerber Fmt 4.6, Leading zero omitted, Abs format (unit mm)*
G04 Created by KiCad (PCBNEW (2018-01-11 revision 6f2beeb)-master) date Tuesday, 16 January 2018 'AMt' 00:17:09*
%MOMM*%
%LPD*%
G01*
G04 APERTURE LIST*
%ADD10C,0.300000*%
G04 APERTURE END LIST*
D10*
X79607142Y-57096428D02*
X78750000Y-57096428D01*
X79178571Y-57096428D02*
X79178571Y-58596428D01*
X79035714Y-58382142D01*
X78892857Y-58239285D01*
X78750000Y-58167857D01*
X80107142Y-57096428D02*
X80892857Y-58096428D01*
X80107142Y-58096428D02*
X80892857Y-57096428D01*
X82107142Y-58096428D02*
X82107142Y-57096428D01*
X81750000Y-58667857D02*
X81392857Y-57596428D01*
X82321428Y-57596428D01*
X76285714Y-55903571D02*
X76357142Y-55975000D01*
X76500000Y-56046428D01*
X76857142Y-56046428D01*
X77000000Y-55975000D01*
X77071428Y-55903571D01*
X77142857Y-55760714D01*
X77142857Y-55617857D01*
X77071428Y-55403571D01*
X76214285Y-54546428D01*
X77142857Y-54546428D01*
X77785714Y-54689285D02*
X77857142Y-54617857D01*
X77785714Y-54546428D01*
X77714285Y-54617857D01*
X77785714Y-54689285D01*
X77785714Y-54546428D01*
X79214285Y-56046428D02*
X78500000Y-56046428D01*
X78428571Y-55332142D01*
X78500000Y-55403571D01*
X78642857Y-55475000D01*
X79000000Y-55475000D01*
X79142857Y-55403571D01*
X79214285Y-55332142D01*
X79285714Y-55189285D01*
X79285714Y-54832142D01*
X79214285Y-54689285D01*
X79142857Y-54617857D01*
X79000000Y-54546428D01*
X78642857Y-54546428D01*
X78500000Y-54617857D01*
X78428571Y-54689285D01*
X80571428Y-55546428D02*
X80571428Y-54546428D01*
X80214285Y-56117857D02*
X79857142Y-55046428D01*
X80785714Y-55046428D01*
X81357142Y-54546428D02*
X81357142Y-55546428D01*
X81357142Y-55403571D02*
X81428571Y-55475000D01*
X81571428Y-55546428D01*
X81785714Y-55546428D01*
X81928571Y-55475000D01*
X82000000Y-55332142D01*
X82000000Y-54546428D01*
X82000000Y-55332142D02*
X82071428Y-55475000D01*
X82214285Y-55546428D01*
X82428571Y-55546428D01*
X82571428Y-55475000D01*
X82642857Y-55332142D01*
X82642857Y-54546428D01*
X83357142Y-54546428D02*
X83357142Y-55546428D01*
X83357142Y-55403571D02*
X83428571Y-55475000D01*
X83571428Y-55546428D01*
X83785714Y-55546428D01*
X83928571Y-55475000D01*
X84000000Y-55332142D01*
X84000000Y-54546428D01*
X84000000Y-55332142D02*
X84071428Y-55475000D01*
X84214285Y-55546428D01*
X84428571Y-55546428D01*
X84571428Y-55475000D01*
X84642857Y-55332142D01*
X84642857Y-54546428D01*
M02*
