G04 #@! TF.GenerationSoftware,KiCad,Pcbnew,(2018-01-11 revision 6f2beeb)-master*
G04 #@! TF.CreationDate,2018-01-16T00:17:09+01:00*
G04 #@! TF.ProjectId,4pin100mil,3470696E3130306D696C2E6B69636164,rev?*
G04 #@! TF.SameCoordinates,Original*
G04 #@! TF.FileFunction,Copper,L1,Top,Signal*
G04 #@! TF.FilePolarity,Positive*
%FSLAX46Y46*%
G04 Gerber Fmt 4.6, Leading zero omitted, Abs format (unit mm)*
G04 Created by KiCad (PCBNEW (2018-01-11 revision 6f2beeb)-master) date Tuesday, 16 January 2018 'AMt' 00:17:09*
%MOMM*%
%LPD*%
G01*
G04 APERTURE LIST*
%ADD10O,2.032000X1.727200*%
%ADD11R,2.032000X1.727200*%
%ADD12C,0.250000*%
G04 APERTURE END LIST*
D10*
X52800000Y-60320000D03*
X52800000Y-57780000D03*
X52800000Y-55240000D03*
D11*
X52800000Y-52700000D03*
X110500000Y-52700000D03*
D10*
X110500000Y-55240000D03*
X110500000Y-57780000D03*
X110500000Y-60320000D03*
D12*
X52800000Y-60320000D02*
X55969589Y-60320000D01*
X55969589Y-60320000D02*
X56899600Y-61250011D01*
X56899600Y-61250011D02*
X90486400Y-61250011D01*
X90486400Y-61250011D02*
X92136411Y-59600000D01*
X92136411Y-59600000D02*
X108514000Y-59600000D01*
X108514000Y-59600000D02*
X109234000Y-60320000D01*
X109234000Y-60320000D02*
X110500000Y-60320000D01*
X93320000Y-57780000D02*
X110500000Y-57780000D01*
X90300000Y-60800000D02*
X93320000Y-57780000D01*
X52800000Y-57780000D02*
X54066000Y-57780000D01*
X54066000Y-57780000D02*
X57086000Y-60800000D01*
X57086000Y-60800000D02*
X90300000Y-60800000D01*
X52800000Y-55240000D02*
X54066000Y-55240000D01*
X57106000Y-52200000D02*
X90400000Y-52200000D01*
X54066000Y-55240000D02*
X57106000Y-52200000D01*
X90400000Y-52200000D02*
X93400000Y-55200000D01*
X93400000Y-55200000D02*
X110460000Y-55200000D01*
X110460000Y-55200000D02*
X110500000Y-55240000D01*
X52800000Y-52700000D02*
X55969589Y-52700000D01*
X55969589Y-52700000D02*
X56919600Y-51749989D01*
X56919600Y-51749989D02*
X90586400Y-51749989D01*
X90586400Y-51749989D02*
X92336411Y-53500000D01*
X92336411Y-53500000D02*
X108434000Y-53500000D01*
X108434000Y-53500000D02*
X109234000Y-52700000D01*
X109234000Y-52700000D02*
X110500000Y-52700000D01*
M02*
