G04 #@! TF.GenerationSoftware,KiCad,Pcbnew,(2018-01-11 revision 6f2beeb)-master*
G04 #@! TF.CreationDate,2018-01-16T00:01:00+01:00*
G04 #@! TF.ProjectId,6pinICSP,3670696E494353502E6B696361645F70,rev?*
G04 #@! TF.SameCoordinates,Original*
G04 #@! TF.FileFunction,Legend,Top*
G04 #@! TF.FilePolarity,Positive*
%FSLAX46Y46*%
G04 Gerber Fmt 4.6, Leading zero omitted, Abs format (unit mm)*
G04 Created by KiCad (PCBNEW (2018-01-11 revision 6f2beeb)-master) date Tuesday, 16 January 2018 'AMt' 00:01:00*
%MOMM*%
%LPD*%
G01*
G04 APERTURE LIST*
%ADD10C,0.300000*%
%ADD11C,0.010000*%
G04 APERTURE END LIST*
D10*
X70107142Y-52250000D02*
X70821428Y-52250000D01*
X69964285Y-52678571D02*
X70464285Y-51178571D01*
X70964285Y-52678571D01*
X71250000Y-51178571D02*
X71750000Y-52678571D01*
X72250000Y-51178571D01*
X73607142Y-52678571D02*
X73107142Y-51964285D01*
X72750000Y-52678571D02*
X72750000Y-51178571D01*
X73321428Y-51178571D01*
X73464285Y-51250000D01*
X73535714Y-51321428D01*
X73607142Y-51464285D01*
X73607142Y-51678571D01*
X73535714Y-51821428D01*
X73464285Y-51892857D01*
X73321428Y-51964285D01*
X72750000Y-51964285D01*
X75392857Y-52678571D02*
X75392857Y-51178571D01*
X76964285Y-52535714D02*
X76892857Y-52607142D01*
X76678571Y-52678571D01*
X76535714Y-52678571D01*
X76321428Y-52607142D01*
X76178571Y-52464285D01*
X76107142Y-52321428D01*
X76035714Y-52035714D01*
X76035714Y-51821428D01*
X76107142Y-51535714D01*
X76178571Y-51392857D01*
X76321428Y-51250000D01*
X76535714Y-51178571D01*
X76678571Y-51178571D01*
X76892857Y-51250000D01*
X76964285Y-51321428D01*
X77535714Y-52607142D02*
X77750000Y-52678571D01*
X78107142Y-52678571D01*
X78250000Y-52607142D01*
X78321428Y-52535714D01*
X78392857Y-52392857D01*
X78392857Y-52250000D01*
X78321428Y-52107142D01*
X78250000Y-52035714D01*
X78107142Y-51964285D01*
X77821428Y-51892857D01*
X77678571Y-51821428D01*
X77607142Y-51750000D01*
X77535714Y-51607142D01*
X77535714Y-51464285D01*
X77607142Y-51321428D01*
X77678571Y-51250000D01*
X77821428Y-51178571D01*
X78178571Y-51178571D01*
X78392857Y-51250000D01*
X79035714Y-52678571D02*
X79035714Y-51178571D01*
X79607142Y-51178571D01*
X79750000Y-51250000D01*
X79821428Y-51321428D01*
X79892857Y-51464285D01*
X79892857Y-51678571D01*
X79821428Y-51821428D01*
X79750000Y-51892857D01*
X79607142Y-51964285D01*
X79035714Y-51964285D01*
X66464285Y-61678571D02*
X66464285Y-60178571D01*
X67107142Y-61678571D02*
X67107142Y-60892857D01*
X67035714Y-60750000D01*
X66892857Y-60678571D01*
X66678571Y-60678571D01*
X66535714Y-60750000D01*
X66464285Y-60821428D01*
X68464285Y-61678571D02*
X68464285Y-60892857D01*
X68392857Y-60750000D01*
X68250000Y-60678571D01*
X67964285Y-60678571D01*
X67821428Y-60750000D01*
X68464285Y-61607142D02*
X68321428Y-61678571D01*
X67964285Y-61678571D01*
X67821428Y-61607142D01*
X67750000Y-61464285D01*
X67750000Y-61321428D01*
X67821428Y-61178571D01*
X67964285Y-61107142D01*
X68321428Y-61107142D01*
X68464285Y-61035714D01*
X69821428Y-61607142D02*
X69678571Y-61678571D01*
X69392857Y-61678571D01*
X69250000Y-61607142D01*
X69178571Y-61535714D01*
X69107142Y-61392857D01*
X69107142Y-60964285D01*
X69178571Y-60821428D01*
X69250000Y-60750000D01*
X69392857Y-60678571D01*
X69678571Y-60678571D01*
X69821428Y-60750000D01*
X70464285Y-61678571D02*
X70464285Y-60178571D01*
X70607142Y-61107142D02*
X71035714Y-61678571D01*
X71035714Y-60678571D02*
X70464285Y-61250000D01*
X71678571Y-61678571D02*
X71678571Y-60678571D01*
X71678571Y-60821428D02*
X71750000Y-60750000D01*
X71892857Y-60678571D01*
X72107142Y-60678571D01*
X72250000Y-60750000D01*
X72321428Y-60892857D01*
X72321428Y-61678571D01*
X72321428Y-60892857D02*
X72392857Y-60750000D01*
X72535714Y-60678571D01*
X72750000Y-60678571D01*
X72892857Y-60750000D01*
X72964285Y-60892857D01*
X72964285Y-61678571D01*
X74250000Y-61607142D02*
X74107142Y-61678571D01*
X73821428Y-61678571D01*
X73678571Y-61607142D01*
X73607142Y-61464285D01*
X73607142Y-60892857D01*
X73678571Y-60750000D01*
X73821428Y-60678571D01*
X74107142Y-60678571D01*
X74250000Y-60750000D01*
X74321428Y-60892857D01*
X74321428Y-61035714D01*
X73607142Y-61178571D01*
X74964285Y-61678571D02*
X74964285Y-60678571D01*
X74964285Y-60178571D02*
X74892857Y-60250000D01*
X74964285Y-60321428D01*
X75035714Y-60250000D01*
X74964285Y-60178571D01*
X74964285Y-60321428D01*
X75607142Y-61607142D02*
X75750000Y-61678571D01*
X76035714Y-61678571D01*
X76178571Y-61607142D01*
X76250000Y-61464285D01*
X76250000Y-61392857D01*
X76178571Y-61250000D01*
X76035714Y-61178571D01*
X75821428Y-61178571D01*
X75678571Y-61107142D01*
X75607142Y-60964285D01*
X75607142Y-60892857D01*
X75678571Y-60750000D01*
X75821428Y-60678571D01*
X76035714Y-60678571D01*
X76178571Y-60750000D01*
X76678571Y-60678571D02*
X77250000Y-60678571D01*
X76892857Y-60178571D02*
X76892857Y-61464285D01*
X76964285Y-61607142D01*
X77107142Y-61678571D01*
X77250000Y-61678571D01*
X78321428Y-61607142D02*
X78178571Y-61678571D01*
X77892857Y-61678571D01*
X77750000Y-61607142D01*
X77678571Y-61464285D01*
X77678571Y-60892857D01*
X77750000Y-60750000D01*
X77892857Y-60678571D01*
X78178571Y-60678571D01*
X78321428Y-60750000D01*
X78392857Y-60892857D01*
X78392857Y-61035714D01*
X77678571Y-61178571D01*
X79035714Y-61678571D02*
X79035714Y-60678571D01*
X79035714Y-60964285D02*
X79107142Y-60821428D01*
X79178571Y-60750000D01*
X79321428Y-60678571D01*
X79464285Y-60678571D01*
X79964285Y-61535714D02*
X80035714Y-61607142D01*
X79964285Y-61678571D01*
X79892857Y-61607142D01*
X79964285Y-61535714D01*
X79964285Y-61678571D01*
X81321428Y-61678571D02*
X81321428Y-60178571D01*
X81321428Y-61607142D02*
X81178571Y-61678571D01*
X80892857Y-61678571D01*
X80750000Y-61607142D01*
X80678571Y-61535714D01*
X80607142Y-61392857D01*
X80607142Y-60964285D01*
X80678571Y-60821428D01*
X80750000Y-60750000D01*
X80892857Y-60678571D01*
X81178571Y-60678571D01*
X81321428Y-60750000D01*
X82035714Y-61678571D02*
X82035714Y-60178571D01*
X82178571Y-61107142D02*
X82607142Y-61678571D01*
X82607142Y-60678571D02*
X82035714Y-61250000D01*
D11*
G36*
X102684355Y-56611434D02*
X102684044Y-56686793D01*
X102683200Y-56742845D01*
X102681562Y-56782638D01*
X102678862Y-56809217D01*
X102674838Y-56825630D01*
X102669224Y-56834924D01*
X102661756Y-56840145D01*
X102655825Y-56842779D01*
X102635392Y-56848476D01*
X102593937Y-56857787D01*
X102535449Y-56869897D01*
X102463918Y-56883990D01*
X102383334Y-56899253D01*
X102342018Y-56906863D01*
X102259231Y-56922263D01*
X102184265Y-56936763D01*
X102120932Y-56949583D01*
X102073044Y-56959938D01*
X102044413Y-56967047D01*
X102038459Y-56969168D01*
X102028990Y-56983098D01*
X102012159Y-57016094D01*
X101989913Y-57063589D01*
X101964204Y-57121018D01*
X101936979Y-57183814D01*
X101910187Y-57247411D01*
X101885778Y-57307244D01*
X101865701Y-57358745D01*
X101851904Y-57397350D01*
X101846337Y-57418492D01*
X101846306Y-57419335D01*
X101853246Y-57433315D01*
X101872703Y-57465159D01*
X101902720Y-57511855D01*
X101941341Y-57570396D01*
X101986607Y-57637771D01*
X102024106Y-57692820D01*
X102073094Y-57764862D01*
X102116911Y-57830329D01*
X102153602Y-57886217D01*
X102181213Y-57929519D01*
X102197787Y-57957230D01*
X102201800Y-57966006D01*
X102193044Y-57979604D01*
X102168800Y-58007576D01*
X102132111Y-58046921D01*
X102086018Y-58094637D01*
X102033561Y-58147723D01*
X101977781Y-58203177D01*
X101921720Y-58257999D01*
X101868417Y-58309186D01*
X101820915Y-58353739D01*
X101782254Y-58388655D01*
X101755474Y-58410932D01*
X101744142Y-58417700D01*
X101728015Y-58411874D01*
X101696072Y-58394027D01*
X101647457Y-58363601D01*
X101581315Y-58320038D01*
X101496790Y-58262781D01*
X101393026Y-58191274D01*
X101342266Y-58155996D01*
X101293649Y-58123255D01*
X101251357Y-58096832D01*
X101220415Y-58079741D01*
X101206875Y-58074800D01*
X101190710Y-58079603D01*
X101155838Y-58092737D01*
X101106797Y-58112286D01*
X101048123Y-58136336D01*
X100984351Y-58162972D01*
X100920019Y-58190279D01*
X100859662Y-58216341D01*
X100807816Y-58239245D01*
X100769018Y-58257076D01*
X100747804Y-58267917D01*
X100745513Y-58269553D01*
X100741411Y-58283390D01*
X100733460Y-58318662D01*
X100722389Y-58371820D01*
X100708926Y-58439314D01*
X100693798Y-58517597D01*
X100683805Y-58570506D01*
X100667934Y-58654519D01*
X100653270Y-58730703D01*
X100640553Y-58795334D01*
X100630522Y-58844685D01*
X100623916Y-58875030D01*
X100621898Y-58882579D01*
X100615705Y-58888157D01*
X100600135Y-58892479D01*
X100572502Y-58895690D01*
X100530121Y-58897933D01*
X100470305Y-58899353D01*
X100390368Y-58900094D01*
X100291705Y-58900299D01*
X100192364Y-58900181D01*
X100115487Y-58899695D01*
X100058142Y-58898643D01*
X100017393Y-58896827D01*
X99990305Y-58894051D01*
X99973945Y-58890115D01*
X99965378Y-58884824D01*
X99961698Y-58878075D01*
X99956587Y-58856063D01*
X99948543Y-58816100D01*
X99938966Y-58765258D01*
X99934679Y-58741550D01*
X99912319Y-58617801D01*
X99893469Y-58517073D01*
X99877665Y-58437298D01*
X99864443Y-58376409D01*
X99853339Y-58332339D01*
X99843890Y-58303020D01*
X99835631Y-58286385D01*
X99831584Y-58282009D01*
X99814767Y-58273299D01*
X99779218Y-58257362D01*
X99729411Y-58236022D01*
X99669822Y-58211098D01*
X99604926Y-58184411D01*
X99539198Y-58157782D01*
X99477113Y-58133034D01*
X99423147Y-58111985D01*
X99381776Y-58096458D01*
X99357473Y-58088274D01*
X99353474Y-58087464D01*
X99340616Y-58094376D01*
X99309962Y-58113738D01*
X99264588Y-58143520D01*
X99207568Y-58181690D01*
X99141974Y-58226219D01*
X99103480Y-58252600D01*
X99033630Y-58299945D01*
X98969703Y-58341988D01*
X98914982Y-58376672D01*
X98872752Y-58401942D01*
X98846296Y-58415740D01*
X98839831Y-58417700D01*
X98824064Y-58408866D01*
X98793072Y-58383770D01*
X98749172Y-58344515D01*
X98694681Y-58293210D01*
X98631917Y-58231957D01*
X98596592Y-58196686D01*
X98528203Y-58127690D01*
X98475919Y-58074215D01*
X98437808Y-58033900D01*
X98411936Y-58004384D01*
X98396371Y-57983305D01*
X98389179Y-57968303D01*
X98388428Y-57957016D01*
X98392183Y-57947084D01*
X98392208Y-57947038D01*
X98403852Y-57928193D01*
X98427538Y-57892068D01*
X98460851Y-57842264D01*
X98501378Y-57782386D01*
X98546702Y-57716038D01*
X98558417Y-57698983D01*
X98603496Y-57632693D01*
X98643202Y-57572898D01*
X98675397Y-57522937D01*
X98697940Y-57486146D01*
X98708693Y-57465865D01*
X98709300Y-57463542D01*
X98703751Y-57446001D01*
X98688809Y-57411705D01*
X98667033Y-57366310D01*
X98650891Y-57334429D01*
X98626167Y-57283464D01*
X98609456Y-57242639D01*
X98602530Y-57216612D01*
X98603608Y-57210212D01*
X98617747Y-57202727D01*
X98652407Y-57186899D01*
X98704605Y-57164015D01*
X98771361Y-57135363D01*
X98849691Y-57102229D01*
X98936613Y-57065901D01*
X98969993Y-57052058D01*
X99068130Y-57011417D01*
X99166742Y-56970535D01*
X99261119Y-56931366D01*
X99346551Y-56895866D01*
X99418328Y-56865992D01*
X99471743Y-56843698D01*
X99475287Y-56842215D01*
X99533340Y-56818446D01*
X99583760Y-56798801D01*
X99621502Y-56785174D01*
X99641522Y-56779463D01*
X99642447Y-56779400D01*
X99657565Y-56789106D01*
X99681970Y-56814784D01*
X99710862Y-56851272D01*
X99716301Y-56858775D01*
X99807865Y-56969563D01*
X99907312Y-57056364D01*
X100015293Y-57119538D01*
X100132458Y-57159446D01*
X100259459Y-57176450D01*
X100290450Y-57177160D01*
X100417465Y-57166578D01*
X100534164Y-57133408D01*
X100642612Y-57076826D01*
X100744869Y-56996010D01*
X100745547Y-56995377D01*
X100829495Y-56900425D01*
X100892157Y-56794542D01*
X100933403Y-56680851D01*
X100953105Y-56562475D01*
X100951134Y-56442536D01*
X100927362Y-56324157D01*
X100881660Y-56210460D01*
X100813899Y-56104569D01*
X100783740Y-56068580D01*
X100688532Y-55980196D01*
X100582458Y-55914755D01*
X100465929Y-55872439D01*
X100339355Y-55853431D01*
X100298131Y-55852300D01*
X100171248Y-55861355D01*
X100057489Y-55889459D01*
X99954210Y-55938017D01*
X99858772Y-56008438D01*
X99768530Y-56102126D01*
X99725087Y-56157388D01*
X99693461Y-56197429D01*
X99665574Y-56228054D01*
X99645939Y-56244477D01*
X99641510Y-56246000D01*
X99625912Y-56241292D01*
X99589712Y-56227917D01*
X99535744Y-56206999D01*
X99466845Y-56179659D01*
X99385849Y-56147021D01*
X99295592Y-56110207D01*
X99220437Y-56079254D01*
X99120517Y-56037958D01*
X99023842Y-55998057D01*
X98934004Y-55961029D01*
X98854595Y-55928352D01*
X98789206Y-55901506D01*
X98741431Y-55881968D01*
X98722000Y-55874081D01*
X98663336Y-55850060D01*
X98625895Y-55830971D01*
X98607615Y-55811597D01*
X98606435Y-55786721D01*
X98620294Y-55751127D01*
X98647129Y-55699596D01*
X98650527Y-55693214D01*
X98675663Y-55644373D01*
X98695433Y-55602932D01*
X98707191Y-55574603D01*
X98709300Y-55566276D01*
X98702410Y-55551473D01*
X98683088Y-55518956D01*
X98653359Y-55471899D01*
X98615248Y-55413472D01*
X98570781Y-55346849D01*
X98544200Y-55307645D01*
X98497192Y-55238318D01*
X98455392Y-55175957D01*
X98420810Y-55123619D01*
X98395458Y-55084365D01*
X98381345Y-55061252D01*
X98379100Y-55056483D01*
X98387688Y-55045354D01*
X98411822Y-55018851D01*
X98449060Y-54979532D01*
X98496959Y-54929954D01*
X98553077Y-54872675D01*
X98597701Y-54827597D01*
X98659328Y-54766482D01*
X98716045Y-54711896D01*
X98765134Y-54666322D01*
X98803880Y-54632240D01*
X98829566Y-54612132D01*
X98838381Y-54607699D01*
X98854826Y-54614670D01*
X98888769Y-54634204D01*
X98936943Y-54664240D01*
X98996081Y-54702714D01*
X99062916Y-54747562D01*
X99099206Y-54772427D01*
X99168329Y-54819678D01*
X99230981Y-54861668D01*
X99283993Y-54896341D01*
X99324196Y-54921641D01*
X99348421Y-54935512D01*
X99353674Y-54937527D01*
X99371719Y-54932991D01*
X99408556Y-54920271D01*
X99459636Y-54901204D01*
X99520410Y-54877629D01*
X99586332Y-54851383D01*
X99652853Y-54824305D01*
X99715425Y-54798232D01*
X99769500Y-54775002D01*
X99810530Y-54756453D01*
X99833967Y-54744424D01*
X99837109Y-54742157D01*
X99844072Y-54725451D01*
X99854462Y-54687493D01*
X99867420Y-54632068D01*
X99882084Y-54562961D01*
X99897595Y-54483955D01*
X99905482Y-54441463D01*
X99920918Y-54358930D01*
X99935637Y-54284392D01*
X99948830Y-54221627D01*
X99959688Y-54174412D01*
X99967402Y-54146525D01*
X99969854Y-54140975D01*
X99986438Y-54135447D01*
X100023816Y-54130980D01*
X100077808Y-54127563D01*
X100144235Y-54125185D01*
X100218915Y-54123836D01*
X100297669Y-54123505D01*
X100376318Y-54124182D01*
X100450681Y-54125856D01*
X100516578Y-54128518D01*
X100569830Y-54132156D01*
X100606256Y-54136760D01*
X100621677Y-54142320D01*
X100621816Y-54142606D01*
X100625967Y-54159628D01*
X100633979Y-54197910D01*
X100645116Y-54253735D01*
X100658643Y-54323380D01*
X100673824Y-54403127D01*
X100683542Y-54454921D01*
X100699502Y-54538493D01*
X100714571Y-54613730D01*
X100727967Y-54677026D01*
X100738913Y-54724774D01*
X100746628Y-54753368D01*
X100749450Y-54759899D01*
X100766097Y-54769510D01*
X100801559Y-54786424D01*
X100851182Y-54808692D01*
X100910312Y-54834362D01*
X100974296Y-54861484D01*
X101038479Y-54888107D01*
X101098209Y-54912281D01*
X101148832Y-54932054D01*
X101185694Y-54945475D01*
X101204142Y-54950595D01*
X101204369Y-54950600D01*
X101220860Y-54943654D01*
X101254911Y-54924177D01*
X101303278Y-54894206D01*
X101362717Y-54855781D01*
X101429982Y-54810941D01*
X101469776Y-54783844D01*
X101540169Y-54735954D01*
X101604607Y-54692872D01*
X101659814Y-54656729D01*
X101702513Y-54629654D01*
X101729429Y-54613776D01*
X101736311Y-54610590D01*
X101749132Y-54613378D01*
X101771095Y-54627577D01*
X101803846Y-54654629D01*
X101849031Y-54695977D01*
X101908294Y-54753063D01*
X101980786Y-54824834D01*
X102041902Y-54886493D01*
X102096537Y-54942800D01*
X102142237Y-54991127D01*
X102176547Y-55028847D01*
X102197013Y-55053332D01*
X102201800Y-55061384D01*
X102194850Y-55075877D01*
X102175332Y-55108099D01*
X102145246Y-55154972D01*
X102106590Y-55213416D01*
X102061364Y-55280355D01*
X102028521Y-55328220D01*
X101979713Y-55399399D01*
X101935788Y-55464355D01*
X101898818Y-55519951D01*
X101870876Y-55563047D01*
X101854035Y-55590505D01*
X101850015Y-55598509D01*
X101852996Y-55615778D01*
X101864178Y-55651718D01*
X101881724Y-55701663D01*
X101903798Y-55760950D01*
X101928566Y-55824916D01*
X101954192Y-55888898D01*
X101978838Y-55948232D01*
X102000671Y-55998254D01*
X102017853Y-56034300D01*
X102028333Y-56051493D01*
X102044465Y-56057907D01*
X102082020Y-56067971D01*
X102137410Y-56080877D01*
X102207052Y-56095817D01*
X102287360Y-56111986D01*
X102351956Y-56124343D01*
X102437637Y-56140575D01*
X102515142Y-56155634D01*
X102580937Y-56168804D01*
X102631485Y-56179366D01*
X102663249Y-56186603D01*
X102672631Y-56189424D01*
X102676023Y-56203811D01*
X102678990Y-56240489D01*
X102681418Y-56296352D01*
X102683194Y-56368294D01*
X102684206Y-56453208D01*
X102684400Y-56513721D01*
X102684355Y-56611434D01*
X102684355Y-56611434D01*
G37*
X102684355Y-56611434D02*
X102684044Y-56686793D01*
X102683200Y-56742845D01*
X102681562Y-56782638D01*
X102678862Y-56809217D01*
X102674838Y-56825630D01*
X102669224Y-56834924D01*
X102661756Y-56840145D01*
X102655825Y-56842779D01*
X102635392Y-56848476D01*
X102593937Y-56857787D01*
X102535449Y-56869897D01*
X102463918Y-56883990D01*
X102383334Y-56899253D01*
X102342018Y-56906863D01*
X102259231Y-56922263D01*
X102184265Y-56936763D01*
X102120932Y-56949583D01*
X102073044Y-56959938D01*
X102044413Y-56967047D01*
X102038459Y-56969168D01*
X102028990Y-56983098D01*
X102012159Y-57016094D01*
X101989913Y-57063589D01*
X101964204Y-57121018D01*
X101936979Y-57183814D01*
X101910187Y-57247411D01*
X101885778Y-57307244D01*
X101865701Y-57358745D01*
X101851904Y-57397350D01*
X101846337Y-57418492D01*
X101846306Y-57419335D01*
X101853246Y-57433315D01*
X101872703Y-57465159D01*
X101902720Y-57511855D01*
X101941341Y-57570396D01*
X101986607Y-57637771D01*
X102024106Y-57692820D01*
X102073094Y-57764862D01*
X102116911Y-57830329D01*
X102153602Y-57886217D01*
X102181213Y-57929519D01*
X102197787Y-57957230D01*
X102201800Y-57966006D01*
X102193044Y-57979604D01*
X102168800Y-58007576D01*
X102132111Y-58046921D01*
X102086018Y-58094637D01*
X102033561Y-58147723D01*
X101977781Y-58203177D01*
X101921720Y-58257999D01*
X101868417Y-58309186D01*
X101820915Y-58353739D01*
X101782254Y-58388655D01*
X101755474Y-58410932D01*
X101744142Y-58417700D01*
X101728015Y-58411874D01*
X101696072Y-58394027D01*
X101647457Y-58363601D01*
X101581315Y-58320038D01*
X101496790Y-58262781D01*
X101393026Y-58191274D01*
X101342266Y-58155996D01*
X101293649Y-58123255D01*
X101251357Y-58096832D01*
X101220415Y-58079741D01*
X101206875Y-58074800D01*
X101190710Y-58079603D01*
X101155838Y-58092737D01*
X101106797Y-58112286D01*
X101048123Y-58136336D01*
X100984351Y-58162972D01*
X100920019Y-58190279D01*
X100859662Y-58216341D01*
X100807816Y-58239245D01*
X100769018Y-58257076D01*
X100747804Y-58267917D01*
X100745513Y-58269553D01*
X100741411Y-58283390D01*
X100733460Y-58318662D01*
X100722389Y-58371820D01*
X100708926Y-58439314D01*
X100693798Y-58517597D01*
X100683805Y-58570506D01*
X100667934Y-58654519D01*
X100653270Y-58730703D01*
X100640553Y-58795334D01*
X100630522Y-58844685D01*
X100623916Y-58875030D01*
X100621898Y-58882579D01*
X100615705Y-58888157D01*
X100600135Y-58892479D01*
X100572502Y-58895690D01*
X100530121Y-58897933D01*
X100470305Y-58899353D01*
X100390368Y-58900094D01*
X100291705Y-58900299D01*
X100192364Y-58900181D01*
X100115487Y-58899695D01*
X100058142Y-58898643D01*
X100017393Y-58896827D01*
X99990305Y-58894051D01*
X99973945Y-58890115D01*
X99965378Y-58884824D01*
X99961698Y-58878075D01*
X99956587Y-58856063D01*
X99948543Y-58816100D01*
X99938966Y-58765258D01*
X99934679Y-58741550D01*
X99912319Y-58617801D01*
X99893469Y-58517073D01*
X99877665Y-58437298D01*
X99864443Y-58376409D01*
X99853339Y-58332339D01*
X99843890Y-58303020D01*
X99835631Y-58286385D01*
X99831584Y-58282009D01*
X99814767Y-58273299D01*
X99779218Y-58257362D01*
X99729411Y-58236022D01*
X99669822Y-58211098D01*
X99604926Y-58184411D01*
X99539198Y-58157782D01*
X99477113Y-58133034D01*
X99423147Y-58111985D01*
X99381776Y-58096458D01*
X99357473Y-58088274D01*
X99353474Y-58087464D01*
X99340616Y-58094376D01*
X99309962Y-58113738D01*
X99264588Y-58143520D01*
X99207568Y-58181690D01*
X99141974Y-58226219D01*
X99103480Y-58252600D01*
X99033630Y-58299945D01*
X98969703Y-58341988D01*
X98914982Y-58376672D01*
X98872752Y-58401942D01*
X98846296Y-58415740D01*
X98839831Y-58417700D01*
X98824064Y-58408866D01*
X98793072Y-58383770D01*
X98749172Y-58344515D01*
X98694681Y-58293210D01*
X98631917Y-58231957D01*
X98596592Y-58196686D01*
X98528203Y-58127690D01*
X98475919Y-58074215D01*
X98437808Y-58033900D01*
X98411936Y-58004384D01*
X98396371Y-57983305D01*
X98389179Y-57968303D01*
X98388428Y-57957016D01*
X98392183Y-57947084D01*
X98392208Y-57947038D01*
X98403852Y-57928193D01*
X98427538Y-57892068D01*
X98460851Y-57842264D01*
X98501378Y-57782386D01*
X98546702Y-57716038D01*
X98558417Y-57698983D01*
X98603496Y-57632693D01*
X98643202Y-57572898D01*
X98675397Y-57522937D01*
X98697940Y-57486146D01*
X98708693Y-57465865D01*
X98709300Y-57463542D01*
X98703751Y-57446001D01*
X98688809Y-57411705D01*
X98667033Y-57366310D01*
X98650891Y-57334429D01*
X98626167Y-57283464D01*
X98609456Y-57242639D01*
X98602530Y-57216612D01*
X98603608Y-57210212D01*
X98617747Y-57202727D01*
X98652407Y-57186899D01*
X98704605Y-57164015D01*
X98771361Y-57135363D01*
X98849691Y-57102229D01*
X98936613Y-57065901D01*
X98969993Y-57052058D01*
X99068130Y-57011417D01*
X99166742Y-56970535D01*
X99261119Y-56931366D01*
X99346551Y-56895866D01*
X99418328Y-56865992D01*
X99471743Y-56843698D01*
X99475287Y-56842215D01*
X99533340Y-56818446D01*
X99583760Y-56798801D01*
X99621502Y-56785174D01*
X99641522Y-56779463D01*
X99642447Y-56779400D01*
X99657565Y-56789106D01*
X99681970Y-56814784D01*
X99710862Y-56851272D01*
X99716301Y-56858775D01*
X99807865Y-56969563D01*
X99907312Y-57056364D01*
X100015293Y-57119538D01*
X100132458Y-57159446D01*
X100259459Y-57176450D01*
X100290450Y-57177160D01*
X100417465Y-57166578D01*
X100534164Y-57133408D01*
X100642612Y-57076826D01*
X100744869Y-56996010D01*
X100745547Y-56995377D01*
X100829495Y-56900425D01*
X100892157Y-56794542D01*
X100933403Y-56680851D01*
X100953105Y-56562475D01*
X100951134Y-56442536D01*
X100927362Y-56324157D01*
X100881660Y-56210460D01*
X100813899Y-56104569D01*
X100783740Y-56068580D01*
X100688532Y-55980196D01*
X100582458Y-55914755D01*
X100465929Y-55872439D01*
X100339355Y-55853431D01*
X100298131Y-55852300D01*
X100171248Y-55861355D01*
X100057489Y-55889459D01*
X99954210Y-55938017D01*
X99858772Y-56008438D01*
X99768530Y-56102126D01*
X99725087Y-56157388D01*
X99693461Y-56197429D01*
X99665574Y-56228054D01*
X99645939Y-56244477D01*
X99641510Y-56246000D01*
X99625912Y-56241292D01*
X99589712Y-56227917D01*
X99535744Y-56206999D01*
X99466845Y-56179659D01*
X99385849Y-56147021D01*
X99295592Y-56110207D01*
X99220437Y-56079254D01*
X99120517Y-56037958D01*
X99023842Y-55998057D01*
X98934004Y-55961029D01*
X98854595Y-55928352D01*
X98789206Y-55901506D01*
X98741431Y-55881968D01*
X98722000Y-55874081D01*
X98663336Y-55850060D01*
X98625895Y-55830971D01*
X98607615Y-55811597D01*
X98606435Y-55786721D01*
X98620294Y-55751127D01*
X98647129Y-55699596D01*
X98650527Y-55693214D01*
X98675663Y-55644373D01*
X98695433Y-55602932D01*
X98707191Y-55574603D01*
X98709300Y-55566276D01*
X98702410Y-55551473D01*
X98683088Y-55518956D01*
X98653359Y-55471899D01*
X98615248Y-55413472D01*
X98570781Y-55346849D01*
X98544200Y-55307645D01*
X98497192Y-55238318D01*
X98455392Y-55175957D01*
X98420810Y-55123619D01*
X98395458Y-55084365D01*
X98381345Y-55061252D01*
X98379100Y-55056483D01*
X98387688Y-55045354D01*
X98411822Y-55018851D01*
X98449060Y-54979532D01*
X98496959Y-54929954D01*
X98553077Y-54872675D01*
X98597701Y-54827597D01*
X98659328Y-54766482D01*
X98716045Y-54711896D01*
X98765134Y-54666322D01*
X98803880Y-54632240D01*
X98829566Y-54612132D01*
X98838381Y-54607699D01*
X98854826Y-54614670D01*
X98888769Y-54634204D01*
X98936943Y-54664240D01*
X98996081Y-54702714D01*
X99062916Y-54747562D01*
X99099206Y-54772427D01*
X99168329Y-54819678D01*
X99230981Y-54861668D01*
X99283993Y-54896341D01*
X99324196Y-54921641D01*
X99348421Y-54935512D01*
X99353674Y-54937527D01*
X99371719Y-54932991D01*
X99408556Y-54920271D01*
X99459636Y-54901204D01*
X99520410Y-54877629D01*
X99586332Y-54851383D01*
X99652853Y-54824305D01*
X99715425Y-54798232D01*
X99769500Y-54775002D01*
X99810530Y-54756453D01*
X99833967Y-54744424D01*
X99837109Y-54742157D01*
X99844072Y-54725451D01*
X99854462Y-54687493D01*
X99867420Y-54632068D01*
X99882084Y-54562961D01*
X99897595Y-54483955D01*
X99905482Y-54441463D01*
X99920918Y-54358930D01*
X99935637Y-54284392D01*
X99948830Y-54221627D01*
X99959688Y-54174412D01*
X99967402Y-54146525D01*
X99969854Y-54140975D01*
X99986438Y-54135447D01*
X100023816Y-54130980D01*
X100077808Y-54127563D01*
X100144235Y-54125185D01*
X100218915Y-54123836D01*
X100297669Y-54123505D01*
X100376318Y-54124182D01*
X100450681Y-54125856D01*
X100516578Y-54128518D01*
X100569830Y-54132156D01*
X100606256Y-54136760D01*
X100621677Y-54142320D01*
X100621816Y-54142606D01*
X100625967Y-54159628D01*
X100633979Y-54197910D01*
X100645116Y-54253735D01*
X100658643Y-54323380D01*
X100673824Y-54403127D01*
X100683542Y-54454921D01*
X100699502Y-54538493D01*
X100714571Y-54613730D01*
X100727967Y-54677026D01*
X100738913Y-54724774D01*
X100746628Y-54753368D01*
X100749450Y-54759899D01*
X100766097Y-54769510D01*
X100801559Y-54786424D01*
X100851182Y-54808692D01*
X100910312Y-54834362D01*
X100974296Y-54861484D01*
X101038479Y-54888107D01*
X101098209Y-54912281D01*
X101148832Y-54932054D01*
X101185694Y-54945475D01*
X101204142Y-54950595D01*
X101204369Y-54950600D01*
X101220860Y-54943654D01*
X101254911Y-54924177D01*
X101303278Y-54894206D01*
X101362717Y-54855781D01*
X101429982Y-54810941D01*
X101469776Y-54783844D01*
X101540169Y-54735954D01*
X101604607Y-54692872D01*
X101659814Y-54656729D01*
X101702513Y-54629654D01*
X101729429Y-54613776D01*
X101736311Y-54610590D01*
X101749132Y-54613378D01*
X101771095Y-54627577D01*
X101803846Y-54654629D01*
X101849031Y-54695977D01*
X101908294Y-54753063D01*
X101980786Y-54824834D01*
X102041902Y-54886493D01*
X102096537Y-54942800D01*
X102142237Y-54991127D01*
X102176547Y-55028847D01*
X102197013Y-55053332D01*
X102201800Y-55061384D01*
X102194850Y-55075877D01*
X102175332Y-55108099D01*
X102145246Y-55154972D01*
X102106590Y-55213416D01*
X102061364Y-55280355D01*
X102028521Y-55328220D01*
X101979713Y-55399399D01*
X101935788Y-55464355D01*
X101898818Y-55519951D01*
X101870876Y-55563047D01*
X101854035Y-55590505D01*
X101850015Y-55598509D01*
X101852996Y-55615778D01*
X101864178Y-55651718D01*
X101881724Y-55701663D01*
X101903798Y-55760950D01*
X101928566Y-55824916D01*
X101954192Y-55888898D01*
X101978838Y-55948232D01*
X102000671Y-55998254D01*
X102017853Y-56034300D01*
X102028333Y-56051493D01*
X102044465Y-56057907D01*
X102082020Y-56067971D01*
X102137410Y-56080877D01*
X102207052Y-56095817D01*
X102287360Y-56111986D01*
X102351956Y-56124343D01*
X102437637Y-56140575D01*
X102515142Y-56155634D01*
X102580937Y-56168804D01*
X102631485Y-56179366D01*
X102663249Y-56186603D01*
X102672631Y-56189424D01*
X102676023Y-56203811D01*
X102678990Y-56240489D01*
X102681418Y-56296352D01*
X102683194Y-56368294D01*
X102684206Y-56453208D01*
X102684400Y-56513721D01*
X102684355Y-56611434D01*
M02*
