G04 #@! TF.GenerationSoftware,KiCad,Pcbnew,(5.0.0-rc2-dev-222-g3b0a758)*
G04 #@! TF.CreationDate,2018-04-29T02:35:51+02:00*
G04 #@! TF.ProjectId,6pin100mil,3670696E3130306D696C2E6B69636164,rev?*
G04 #@! TF.SameCoordinates,Original*
G04 #@! TF.FileFunction,Copper,L1,Top,Signal*
G04 #@! TF.FilePolarity,Positive*
%FSLAX46Y46*%
G04 Gerber Fmt 4.6, Leading zero omitted, Abs format (unit mm)*
G04 Created by KiCad (PCBNEW (5.0.0-rc2-dev-222-g3b0a758)) date Sunday, 29 April 2018 at 02:35:51*
%MOMM*%
%LPD*%
G01*
G04 APERTURE LIST*
%ADD10O,2.300000X1.700000*%
%ADD11R,2.300000X1.700000*%
%ADD12R,1.700000X1.700000*%
%ADD13O,1.700000X1.700000*%
%ADD14C,0.250000*%
G04 APERTURE END LIST*
D10*
X110500000Y-62860000D03*
X110500000Y-60320000D03*
X110500000Y-57780000D03*
X110500000Y-55240000D03*
X110500000Y-52700000D03*
D11*
X110500000Y-50160000D03*
D12*
X52800000Y-50160000D03*
D13*
X52800000Y-52700000D03*
X52800000Y-55240000D03*
X52800000Y-57780000D03*
X52800000Y-60320000D03*
X52800000Y-62860000D03*
D14*
X109297919Y-57780000D02*
X110500000Y-57780000D01*
X90177179Y-60800000D02*
X93197179Y-57780000D01*
X52800000Y-57780000D02*
X55820000Y-60800000D01*
X55820000Y-60800000D02*
X90177179Y-60800000D01*
X93197179Y-57780000D02*
X109297919Y-57780000D01*
X52800000Y-55240000D02*
X54066000Y-55240000D01*
X57106000Y-52200000D02*
X90400000Y-52200000D01*
X54066000Y-55240000D02*
X57106000Y-52200000D01*
X90400000Y-52200000D02*
X93400000Y-55200000D01*
X93400000Y-55200000D02*
X110460000Y-55200000D01*
X110460000Y-55200000D02*
X110500000Y-55240000D01*
X52800000Y-52700000D02*
X55969589Y-52700000D01*
X55969589Y-52700000D02*
X56919600Y-51749989D01*
X56919600Y-51749989D02*
X90586400Y-51749989D01*
X90586400Y-51749989D02*
X92336411Y-53500000D01*
X92336411Y-53500000D02*
X108434000Y-53500000D01*
X108434000Y-53500000D02*
X109234000Y-52700000D01*
X109234000Y-52700000D02*
X110500000Y-52700000D01*
X52800000Y-50160000D02*
X54660000Y-50160000D01*
X106000000Y-52500000D02*
X108340000Y-50160000D01*
X54660000Y-50160000D02*
X55750000Y-51250000D01*
X55750000Y-51250000D02*
X90750000Y-51250000D01*
X90750000Y-51250000D02*
X92000000Y-52500000D01*
X92000000Y-52500000D02*
X106000000Y-52500000D01*
X108340000Y-50160000D02*
X110500000Y-50160000D01*
X109650001Y-59470001D02*
X110500000Y-60320000D01*
X53730011Y-61250011D02*
X90363579Y-61250011D01*
X90363579Y-61250011D02*
X92143589Y-59470001D01*
X52800000Y-60320000D02*
X53730011Y-61250011D01*
X92143589Y-59470001D02*
X109650001Y-59470001D01*
X52800000Y-62860000D02*
X54640000Y-62860000D01*
X54640000Y-62860000D02*
X55750000Y-61750000D01*
X91750000Y-60500000D02*
X106250000Y-60500000D01*
X55750000Y-61750000D02*
X90500000Y-61750000D01*
X90500000Y-61750000D02*
X91750000Y-60500000D01*
X106250000Y-60500000D02*
X108500000Y-62750000D01*
X110390000Y-62750000D02*
X110500000Y-62860000D01*
X108500000Y-62750000D02*
X110390000Y-62750000D01*
M02*
