G04 #@! TF.GenerationSoftware,KiCad,Pcbnew,(5.0.0-rc2-dev-222-g3b0a758)*
G04 #@! TF.CreationDate,2018-04-29T02:35:51+02:00*
G04 #@! TF.ProjectId,6pin100mil,3670696E3130306D696C2E6B69636164,rev?*
G04 #@! TF.SameCoordinates,Original*
G04 #@! TF.FileFunction,Legend,Top*
G04 #@! TF.FilePolarity,Positive*
%FSLAX46Y46*%
G04 Gerber Fmt 4.6, Leading zero omitted, Abs format (unit mm)*
G04 Created by KiCad (PCBNEW (5.0.0-rc2-dev-222-g3b0a758)) date Sunday, 29 April 2018 at 02:35:51*
%MOMM*%
%LPD*%
G01*
G04 APERTURE LIST*
%ADD10C,0.300000*%
%ADD11C,0.120000*%
%ADD12C,0.010000*%
G04 APERTURE END LIST*
D10*
X113851428Y-63150714D02*
X113851428Y-62865000D01*
X113780000Y-62722142D01*
X113708571Y-62650714D01*
X113494285Y-62507857D01*
X113208571Y-62436428D01*
X112637142Y-62436428D01*
X112494285Y-62507857D01*
X112422857Y-62579285D01*
X112351428Y-62722142D01*
X112351428Y-63007857D01*
X112422857Y-63150714D01*
X112494285Y-63222142D01*
X112637142Y-63293571D01*
X112994285Y-63293571D01*
X113137142Y-63222142D01*
X113208571Y-63150714D01*
X113280000Y-63007857D01*
X113280000Y-62722142D01*
X113208571Y-62579285D01*
X113137142Y-62507857D01*
X112994285Y-62436428D01*
X113851428Y-60682142D02*
X113851428Y-59967857D01*
X113137142Y-59896428D01*
X113208571Y-59967857D01*
X113280000Y-60110714D01*
X113280000Y-60467857D01*
X113208571Y-60610714D01*
X113137142Y-60682142D01*
X112994285Y-60753571D01*
X112637142Y-60753571D01*
X112494285Y-60682142D01*
X112422857Y-60610714D01*
X112351428Y-60467857D01*
X112351428Y-60110714D01*
X112422857Y-59967857D01*
X112494285Y-59896428D01*
X55939428Y-63150714D02*
X55939428Y-62865000D01*
X55868000Y-62722142D01*
X55796571Y-62650714D01*
X55582285Y-62507857D01*
X55296571Y-62436428D01*
X54725142Y-62436428D01*
X54582285Y-62507857D01*
X54510857Y-62579285D01*
X54439428Y-62722142D01*
X54439428Y-63007857D01*
X54510857Y-63150714D01*
X54582285Y-63222142D01*
X54725142Y-63293571D01*
X55082285Y-63293571D01*
X55225142Y-63222142D01*
X55296571Y-63150714D01*
X55368000Y-63007857D01*
X55368000Y-62722142D01*
X55296571Y-62579285D01*
X55225142Y-62507857D01*
X55082285Y-62436428D01*
X55939428Y-60682142D02*
X55939428Y-59967857D01*
X55225142Y-59896428D01*
X55296571Y-59967857D01*
X55368000Y-60110714D01*
X55368000Y-60467857D01*
X55296571Y-60610714D01*
X55225142Y-60682142D01*
X55082285Y-60753571D01*
X54725142Y-60753571D01*
X54582285Y-60682142D01*
X54510857Y-60610714D01*
X54439428Y-60467857D01*
X54439428Y-60110714D01*
X54510857Y-59967857D01*
X54582285Y-59896428D01*
X64714285Y-51178571D02*
X64428571Y-51178571D01*
X64285714Y-51250000D01*
X64214285Y-51321428D01*
X64071428Y-51535714D01*
X64000000Y-51821428D01*
X64000000Y-52392857D01*
X64071428Y-52535714D01*
X64142857Y-52607142D01*
X64285714Y-52678571D01*
X64571428Y-52678571D01*
X64714285Y-52607142D01*
X64785714Y-52535714D01*
X64857142Y-52392857D01*
X64857142Y-52035714D01*
X64785714Y-51892857D01*
X64714285Y-51821428D01*
X64571428Y-51750000D01*
X64285714Y-51750000D01*
X64142857Y-51821428D01*
X64071428Y-51892857D01*
X64000000Y-52035714D01*
X65500000Y-52107142D02*
X66642857Y-52107142D01*
X67357142Y-51678571D02*
X67357142Y-53178571D01*
X67357142Y-51750000D02*
X67500000Y-51678571D01*
X67785714Y-51678571D01*
X67928571Y-51750000D01*
X68000000Y-51821428D01*
X68071428Y-51964285D01*
X68071428Y-52392857D01*
X68000000Y-52535714D01*
X67928571Y-52607142D01*
X67785714Y-52678571D01*
X67500000Y-52678571D01*
X67357142Y-52607142D01*
X68714285Y-52678571D02*
X68714285Y-51678571D01*
X68714285Y-51178571D02*
X68642857Y-51250000D01*
X68714285Y-51321428D01*
X68785714Y-51250000D01*
X68714285Y-51178571D01*
X68714285Y-51321428D01*
X69428571Y-51678571D02*
X69428571Y-52678571D01*
X69428571Y-51821428D02*
X69500000Y-51750000D01*
X69642857Y-51678571D01*
X69857142Y-51678571D01*
X70000000Y-51750000D01*
X70071428Y-51892857D01*
X70071428Y-52678571D01*
X71928571Y-51678571D02*
X71928571Y-53178571D01*
X71928571Y-51750000D02*
X72071428Y-51678571D01*
X72357142Y-51678571D01*
X72500000Y-51750000D01*
X72571428Y-51821428D01*
X72642857Y-51964285D01*
X72642857Y-52392857D01*
X72571428Y-52535714D01*
X72500000Y-52607142D01*
X72357142Y-52678571D01*
X72071428Y-52678571D01*
X71928571Y-52607142D01*
X73285714Y-52678571D02*
X73285714Y-51678571D01*
X73285714Y-51964285D02*
X73357142Y-51821428D01*
X73428571Y-51750000D01*
X73571428Y-51678571D01*
X73714285Y-51678571D01*
X74428571Y-52678571D02*
X74285714Y-52607142D01*
X74214285Y-52535714D01*
X74142857Y-52392857D01*
X74142857Y-51964285D01*
X74214285Y-51821428D01*
X74285714Y-51750000D01*
X74428571Y-51678571D01*
X74642857Y-51678571D01*
X74785714Y-51750000D01*
X74857142Y-51821428D01*
X74928571Y-51964285D01*
X74928571Y-52392857D01*
X74857142Y-52535714D01*
X74785714Y-52607142D01*
X74642857Y-52678571D01*
X74428571Y-52678571D01*
X76214285Y-51678571D02*
X76214285Y-52892857D01*
X76142857Y-53035714D01*
X76071428Y-53107142D01*
X75928571Y-53178571D01*
X75714285Y-53178571D01*
X75571428Y-53107142D01*
X76214285Y-52607142D02*
X76071428Y-52678571D01*
X75785714Y-52678571D01*
X75642857Y-52607142D01*
X75571428Y-52535714D01*
X75500000Y-52392857D01*
X75500000Y-51964285D01*
X75571428Y-51821428D01*
X75642857Y-51750000D01*
X75785714Y-51678571D01*
X76071428Y-51678571D01*
X76214285Y-51750000D01*
X76928571Y-52678571D02*
X76928571Y-51678571D01*
X76928571Y-51964285D02*
X77000000Y-51821428D01*
X77071428Y-51750000D01*
X77214285Y-51678571D01*
X77357142Y-51678571D01*
X78500000Y-52678571D02*
X78500000Y-51892857D01*
X78428571Y-51750000D01*
X78285714Y-51678571D01*
X78000000Y-51678571D01*
X77857142Y-51750000D01*
X78500000Y-52607142D02*
X78357142Y-52678571D01*
X78000000Y-52678571D01*
X77857142Y-52607142D01*
X77785714Y-52464285D01*
X77785714Y-52321428D01*
X77857142Y-52178571D01*
X78000000Y-52107142D01*
X78357142Y-52107142D01*
X78500000Y-52035714D01*
X79214285Y-52678571D02*
X79214285Y-51678571D01*
X79214285Y-51821428D02*
X79285714Y-51750000D01*
X79428571Y-51678571D01*
X79642857Y-51678571D01*
X79785714Y-51750000D01*
X79857142Y-51892857D01*
X79857142Y-52678571D01*
X79857142Y-51892857D02*
X79928571Y-51750000D01*
X80071428Y-51678571D01*
X80285714Y-51678571D01*
X80428571Y-51750000D01*
X80500000Y-51892857D01*
X80500000Y-52678571D01*
X81214285Y-52678571D02*
X81214285Y-51678571D01*
X81214285Y-51821428D02*
X81285714Y-51750000D01*
X81428571Y-51678571D01*
X81642857Y-51678571D01*
X81785714Y-51750000D01*
X81857142Y-51892857D01*
X81857142Y-52678571D01*
X81857142Y-51892857D02*
X81928571Y-51750000D01*
X82071428Y-51678571D01*
X82285714Y-51678571D01*
X82428571Y-51750000D01*
X82500000Y-51892857D01*
X82500000Y-52678571D01*
X83214285Y-52678571D02*
X83214285Y-51678571D01*
X83214285Y-51178571D02*
X83142857Y-51250000D01*
X83214285Y-51321428D01*
X83285714Y-51250000D01*
X83214285Y-51178571D01*
X83214285Y-51321428D01*
X83928571Y-51678571D02*
X83928571Y-52678571D01*
X83928571Y-51821428D02*
X84000000Y-51750000D01*
X84142857Y-51678571D01*
X84357142Y-51678571D01*
X84500000Y-51750000D01*
X84571428Y-51892857D01*
X84571428Y-52678571D01*
X85928571Y-51678571D02*
X85928571Y-52892857D01*
X85857142Y-53035714D01*
X85785714Y-53107142D01*
X85642857Y-53178571D01*
X85428571Y-53178571D01*
X85285714Y-53107142D01*
X85928571Y-52607142D02*
X85785714Y-52678571D01*
X85500000Y-52678571D01*
X85357142Y-52607142D01*
X85285714Y-52535714D01*
X85214285Y-52392857D01*
X85214285Y-51964285D01*
X85285714Y-51821428D01*
X85357142Y-51750000D01*
X85500000Y-51678571D01*
X85785714Y-51678571D01*
X85928571Y-51750000D01*
X66464285Y-61678571D02*
X66464285Y-60178571D01*
X67107142Y-61678571D02*
X67107142Y-60892857D01*
X67035714Y-60750000D01*
X66892857Y-60678571D01*
X66678571Y-60678571D01*
X66535714Y-60750000D01*
X66464285Y-60821428D01*
X68464285Y-61678571D02*
X68464285Y-60892857D01*
X68392857Y-60750000D01*
X68250000Y-60678571D01*
X67964285Y-60678571D01*
X67821428Y-60750000D01*
X68464285Y-61607142D02*
X68321428Y-61678571D01*
X67964285Y-61678571D01*
X67821428Y-61607142D01*
X67750000Y-61464285D01*
X67750000Y-61321428D01*
X67821428Y-61178571D01*
X67964285Y-61107142D01*
X68321428Y-61107142D01*
X68464285Y-61035714D01*
X69821428Y-61607142D02*
X69678571Y-61678571D01*
X69392857Y-61678571D01*
X69250000Y-61607142D01*
X69178571Y-61535714D01*
X69107142Y-61392857D01*
X69107142Y-60964285D01*
X69178571Y-60821428D01*
X69250000Y-60750000D01*
X69392857Y-60678571D01*
X69678571Y-60678571D01*
X69821428Y-60750000D01*
X70464285Y-61678571D02*
X70464285Y-60178571D01*
X70607142Y-61107142D02*
X71035714Y-61678571D01*
X71035714Y-60678571D02*
X70464285Y-61250000D01*
X71678571Y-61678571D02*
X71678571Y-60678571D01*
X71678571Y-60821428D02*
X71750000Y-60750000D01*
X71892857Y-60678571D01*
X72107142Y-60678571D01*
X72250000Y-60750000D01*
X72321428Y-60892857D01*
X72321428Y-61678571D01*
X72321428Y-60892857D02*
X72392857Y-60750000D01*
X72535714Y-60678571D01*
X72750000Y-60678571D01*
X72892857Y-60750000D01*
X72964285Y-60892857D01*
X72964285Y-61678571D01*
X74250000Y-61607142D02*
X74107142Y-61678571D01*
X73821428Y-61678571D01*
X73678571Y-61607142D01*
X73607142Y-61464285D01*
X73607142Y-60892857D01*
X73678571Y-60750000D01*
X73821428Y-60678571D01*
X74107142Y-60678571D01*
X74250000Y-60750000D01*
X74321428Y-60892857D01*
X74321428Y-61035714D01*
X73607142Y-61178571D01*
X74964285Y-61678571D02*
X74964285Y-60678571D01*
X74964285Y-60178571D02*
X74892857Y-60250000D01*
X74964285Y-60321428D01*
X75035714Y-60250000D01*
X74964285Y-60178571D01*
X74964285Y-60321428D01*
X75607142Y-61607142D02*
X75750000Y-61678571D01*
X76035714Y-61678571D01*
X76178571Y-61607142D01*
X76250000Y-61464285D01*
X76250000Y-61392857D01*
X76178571Y-61250000D01*
X76035714Y-61178571D01*
X75821428Y-61178571D01*
X75678571Y-61107142D01*
X75607142Y-60964285D01*
X75607142Y-60892857D01*
X75678571Y-60750000D01*
X75821428Y-60678571D01*
X76035714Y-60678571D01*
X76178571Y-60750000D01*
X76678571Y-60678571D02*
X77250000Y-60678571D01*
X76892857Y-60178571D02*
X76892857Y-61464285D01*
X76964285Y-61607142D01*
X77107142Y-61678571D01*
X77250000Y-61678571D01*
X78321428Y-61607142D02*
X78178571Y-61678571D01*
X77892857Y-61678571D01*
X77750000Y-61607142D01*
X77678571Y-61464285D01*
X77678571Y-60892857D01*
X77750000Y-60750000D01*
X77892857Y-60678571D01*
X78178571Y-60678571D01*
X78321428Y-60750000D01*
X78392857Y-60892857D01*
X78392857Y-61035714D01*
X77678571Y-61178571D01*
X79035714Y-61678571D02*
X79035714Y-60678571D01*
X79035714Y-60964285D02*
X79107142Y-60821428D01*
X79178571Y-60750000D01*
X79321428Y-60678571D01*
X79464285Y-60678571D01*
X79964285Y-61535714D02*
X80035714Y-61607142D01*
X79964285Y-61678571D01*
X79892857Y-61607142D01*
X79964285Y-61535714D01*
X79964285Y-61678571D01*
X81321428Y-61678571D02*
X81321428Y-60178571D01*
X81321428Y-61607142D02*
X81178571Y-61678571D01*
X80892857Y-61678571D01*
X80750000Y-61607142D01*
X80678571Y-61535714D01*
X80607142Y-61392857D01*
X80607142Y-60964285D01*
X80678571Y-60821428D01*
X80750000Y-60750000D01*
X80892857Y-60678571D01*
X81178571Y-60678571D01*
X81321428Y-60750000D01*
X82035714Y-61678571D02*
X82035714Y-60178571D01*
X82178571Y-61107142D02*
X82607142Y-61678571D01*
X82607142Y-60678571D02*
X82035714Y-61250000D01*
X55796571Y-52403428D02*
X55868000Y-52474857D01*
X55939428Y-52617714D01*
X55939428Y-52974857D01*
X55868000Y-53117714D01*
X55796571Y-53189142D01*
X55653714Y-53260571D01*
X55510857Y-53260571D01*
X55296571Y-53189142D01*
X54439428Y-52332000D01*
X54439428Y-53260571D01*
X55439428Y-58197714D02*
X54439428Y-58197714D01*
X56010857Y-57840571D02*
X54939428Y-57483428D01*
X54939428Y-58412000D01*
X55939428Y-54872000D02*
X55939428Y-55800571D01*
X55368000Y-55300571D01*
X55368000Y-55514857D01*
X55296571Y-55657714D01*
X55225142Y-55729142D01*
X55082285Y-55800571D01*
X54725142Y-55800571D01*
X54582285Y-55729142D01*
X54510857Y-55657714D01*
X54439428Y-55514857D01*
X54439428Y-55086285D01*
X54510857Y-54943428D01*
X54582285Y-54872000D01*
X54439428Y-50466571D02*
X54439428Y-49609428D01*
X54439428Y-50038000D02*
X55939428Y-50038000D01*
X55725142Y-49895142D01*
X55582285Y-49752285D01*
X55510857Y-49609428D01*
X113351428Y-58197714D02*
X112351428Y-58197714D01*
X113922857Y-57840571D02*
X112851428Y-57483428D01*
X112851428Y-58412000D01*
X113851428Y-54872000D02*
X113851428Y-55800571D01*
X113280000Y-55300571D01*
X113280000Y-55514857D01*
X113208571Y-55657714D01*
X113137142Y-55729142D01*
X112994285Y-55800571D01*
X112637142Y-55800571D01*
X112494285Y-55729142D01*
X112422857Y-55657714D01*
X112351428Y-55514857D01*
X112351428Y-55086285D01*
X112422857Y-54943428D01*
X112494285Y-54872000D01*
X113708571Y-52403428D02*
X113780000Y-52474857D01*
X113851428Y-52617714D01*
X113851428Y-52974857D01*
X113780000Y-53117714D01*
X113708571Y-53189142D01*
X113565714Y-53260571D01*
X113422857Y-53260571D01*
X113208571Y-53189142D01*
X112351428Y-52332000D01*
X112351428Y-53260571D01*
X112351428Y-50466571D02*
X112351428Y-49609428D01*
X112351428Y-50038000D02*
X113851428Y-50038000D01*
X113637142Y-49895142D01*
X113494285Y-49752285D01*
X113422857Y-49609428D01*
D11*
X109170000Y-48830000D02*
X110500000Y-48830000D01*
X109170000Y-50160000D02*
X109170000Y-48830000D01*
X109170000Y-51430000D02*
X111830000Y-51430000D01*
X111830000Y-51430000D02*
X111830000Y-64190000D01*
X109170000Y-51430000D02*
X109170000Y-64190000D01*
X109170000Y-64190000D02*
X111830000Y-64190000D01*
X51470000Y-64190000D02*
X54130000Y-64190000D01*
X51470000Y-51430000D02*
X51470000Y-64190000D01*
X54130000Y-51430000D02*
X54130000Y-64190000D01*
X51470000Y-51430000D02*
X54130000Y-51430000D01*
X51470000Y-50160000D02*
X51470000Y-48830000D01*
X51470000Y-48830000D02*
X52800000Y-48830000D01*
D12*
G36*
X101442484Y-56604147D02*
X101442235Y-56664434D01*
X101441560Y-56709276D01*
X101440249Y-56741110D01*
X101438090Y-56762374D01*
X101434870Y-56775504D01*
X101430379Y-56782939D01*
X101424405Y-56787116D01*
X101419660Y-56789223D01*
X101403314Y-56793781D01*
X101370149Y-56801230D01*
X101323359Y-56810917D01*
X101266135Y-56822192D01*
X101201667Y-56834402D01*
X101168615Y-56840490D01*
X101102385Y-56852810D01*
X101042412Y-56864411D01*
X100991746Y-56874666D01*
X100953435Y-56882950D01*
X100930531Y-56888637D01*
X100925768Y-56890334D01*
X100918192Y-56901478D01*
X100904727Y-56927875D01*
X100886931Y-56965871D01*
X100866363Y-57011814D01*
X100844583Y-57062051D01*
X100823150Y-57112929D01*
X100803623Y-57160795D01*
X100787561Y-57201996D01*
X100776523Y-57232880D01*
X100772070Y-57249793D01*
X100772045Y-57250468D01*
X100777597Y-57261652D01*
X100793163Y-57287127D01*
X100817176Y-57324484D01*
X100848073Y-57371317D01*
X100884286Y-57425217D01*
X100914285Y-57469256D01*
X100953475Y-57526889D01*
X100988529Y-57579263D01*
X101017882Y-57623973D01*
X101039970Y-57658615D01*
X101053230Y-57680784D01*
X101056440Y-57687804D01*
X101049435Y-57698683D01*
X101030040Y-57721061D01*
X101000689Y-57752537D01*
X100963814Y-57790709D01*
X100921849Y-57833178D01*
X100877225Y-57877541D01*
X100832376Y-57921399D01*
X100789734Y-57962349D01*
X100751732Y-57997991D01*
X100720803Y-58025924D01*
X100699380Y-58043746D01*
X100690314Y-58049160D01*
X100677412Y-58044499D01*
X100651857Y-58030222D01*
X100612966Y-58005881D01*
X100560052Y-57971030D01*
X100492432Y-57925225D01*
X100409421Y-57868019D01*
X100368813Y-57839796D01*
X100329919Y-57813604D01*
X100296086Y-57792466D01*
X100271332Y-57778792D01*
X100260500Y-57774840D01*
X100247568Y-57778682D01*
X100219671Y-57789189D01*
X100180438Y-57804829D01*
X100133498Y-57824069D01*
X100082481Y-57845378D01*
X100031015Y-57867223D01*
X99982729Y-57888073D01*
X99941253Y-57906396D01*
X99910214Y-57920660D01*
X99893243Y-57929334D01*
X99891411Y-57930643D01*
X99888129Y-57941712D01*
X99881768Y-57969929D01*
X99872912Y-58012456D01*
X99862141Y-58066451D01*
X99850038Y-58129077D01*
X99842044Y-58171405D01*
X99829347Y-58238615D01*
X99817616Y-58299562D01*
X99807443Y-58351267D01*
X99799418Y-58390748D01*
X99794133Y-58415024D01*
X99792518Y-58421063D01*
X99787564Y-58425526D01*
X99775108Y-58428983D01*
X99753002Y-58431552D01*
X99719097Y-58433347D01*
X99671244Y-58434482D01*
X99607295Y-58435075D01*
X99528364Y-58435239D01*
X99448891Y-58435145D01*
X99387390Y-58434756D01*
X99341514Y-58433914D01*
X99308914Y-58432462D01*
X99287244Y-58430240D01*
X99274156Y-58427092D01*
X99267302Y-58422859D01*
X99264358Y-58417460D01*
X99260270Y-58399851D01*
X99253835Y-58367880D01*
X99246173Y-58327206D01*
X99242743Y-58308240D01*
X99224856Y-58209241D01*
X99209776Y-58128659D01*
X99197132Y-58064839D01*
X99186555Y-58016127D01*
X99177671Y-57980871D01*
X99170112Y-57957416D01*
X99163505Y-57944108D01*
X99160267Y-57940607D01*
X99146814Y-57933639D01*
X99118375Y-57920890D01*
X99078529Y-57903817D01*
X99030858Y-57883878D01*
X98978941Y-57862529D01*
X98926358Y-57841226D01*
X98876691Y-57821427D01*
X98833518Y-57804588D01*
X98800421Y-57792167D01*
X98780978Y-57785619D01*
X98777780Y-57784971D01*
X98767493Y-57790501D01*
X98742970Y-57805990D01*
X98706671Y-57829816D01*
X98661054Y-57860352D01*
X98608579Y-57895975D01*
X98577784Y-57917080D01*
X98521904Y-57954956D01*
X98470762Y-57988590D01*
X98426986Y-58016338D01*
X98393201Y-58036554D01*
X98372037Y-58047592D01*
X98366865Y-58049160D01*
X98354252Y-58042093D01*
X98329458Y-58022016D01*
X98294338Y-57990612D01*
X98250745Y-57949568D01*
X98200533Y-57900566D01*
X98172274Y-57872349D01*
X98117562Y-57817152D01*
X98075735Y-57774372D01*
X98045247Y-57742120D01*
X98024549Y-57718507D01*
X98012097Y-57701644D01*
X98006343Y-57689642D01*
X98005742Y-57680613D01*
X98008747Y-57672667D01*
X98008767Y-57672630D01*
X98018082Y-57657555D01*
X98037030Y-57628654D01*
X98063681Y-57588811D01*
X98096102Y-57540909D01*
X98132362Y-57487830D01*
X98141734Y-57474186D01*
X98177797Y-57421154D01*
X98209562Y-57373319D01*
X98235317Y-57333349D01*
X98253352Y-57303917D01*
X98261954Y-57287692D01*
X98262440Y-57285834D01*
X98258001Y-57271801D01*
X98246047Y-57244364D01*
X98228627Y-57208048D01*
X98215713Y-57182543D01*
X98195934Y-57141771D01*
X98182565Y-57109111D01*
X98177024Y-57088289D01*
X98177887Y-57083169D01*
X98189198Y-57077182D01*
X98216925Y-57064519D01*
X98258684Y-57046212D01*
X98312089Y-57023290D01*
X98374753Y-56996783D01*
X98444290Y-56967721D01*
X98470994Y-56956646D01*
X98549504Y-56924134D01*
X98628394Y-56891428D01*
X98703895Y-56860092D01*
X98772241Y-56831693D01*
X98829663Y-56807793D01*
X98872394Y-56789959D01*
X98875230Y-56788772D01*
X98921672Y-56769757D01*
X98962008Y-56754040D01*
X98992202Y-56743139D01*
X99008218Y-56738570D01*
X99008958Y-56738520D01*
X99021052Y-56746285D01*
X99040576Y-56766827D01*
X99063690Y-56796017D01*
X99068041Y-56802020D01*
X99141292Y-56890650D01*
X99220850Y-56960091D01*
X99307234Y-57010630D01*
X99400967Y-57042557D01*
X99502567Y-57056160D01*
X99527360Y-57056728D01*
X99628972Y-57048262D01*
X99722331Y-57021726D01*
X99809089Y-56976461D01*
X99890896Y-56911808D01*
X99891437Y-56911301D01*
X99958596Y-56835340D01*
X100008725Y-56750633D01*
X100041722Y-56659681D01*
X100057484Y-56564980D01*
X100055908Y-56469029D01*
X100036890Y-56374325D01*
X100000328Y-56283368D01*
X99946119Y-56198655D01*
X99921992Y-56169864D01*
X99845826Y-56099157D01*
X99760967Y-56046804D01*
X99667743Y-56012951D01*
X99566484Y-55997744D01*
X99533505Y-55996840D01*
X99431999Y-56004084D01*
X99340991Y-56026567D01*
X99258368Y-56065414D01*
X99182017Y-56121750D01*
X99109824Y-56196701D01*
X99075070Y-56240910D01*
X99049769Y-56272943D01*
X99027459Y-56297443D01*
X99011752Y-56310581D01*
X99008208Y-56311800D01*
X98995730Y-56308033D01*
X98966769Y-56297334D01*
X98923595Y-56280599D01*
X98868476Y-56258727D01*
X98803679Y-56232616D01*
X98731474Y-56203165D01*
X98671350Y-56178403D01*
X98591414Y-56145366D01*
X98514074Y-56113446D01*
X98442203Y-56083823D01*
X98378676Y-56057682D01*
X98326365Y-56036205D01*
X98288145Y-56020574D01*
X98272600Y-56014264D01*
X98225669Y-55995048D01*
X98195716Y-55979777D01*
X98181092Y-55964278D01*
X98180148Y-55944377D01*
X98191235Y-55915901D01*
X98212703Y-55874677D01*
X98215422Y-55869571D01*
X98235531Y-55830498D01*
X98251346Y-55797345D01*
X98260753Y-55774683D01*
X98262440Y-55768021D01*
X98256928Y-55756178D01*
X98241470Y-55730165D01*
X98217687Y-55692519D01*
X98187199Y-55645778D01*
X98151625Y-55592479D01*
X98130360Y-55561116D01*
X98092754Y-55505655D01*
X98059313Y-55455765D01*
X98031648Y-55413895D01*
X98011366Y-55382492D01*
X98000076Y-55364001D01*
X97998280Y-55360186D01*
X98005151Y-55351283D01*
X98024458Y-55330081D01*
X98054248Y-55298626D01*
X98092568Y-55258963D01*
X98137462Y-55213140D01*
X98173161Y-55177078D01*
X98222463Y-55128185D01*
X98267836Y-55084517D01*
X98307107Y-55048057D01*
X98338104Y-55020792D01*
X98358653Y-55004706D01*
X98365705Y-55001159D01*
X98378861Y-55006736D01*
X98406015Y-55022363D01*
X98444554Y-55046392D01*
X98491865Y-55077171D01*
X98545333Y-55113050D01*
X98574365Y-55132941D01*
X98629663Y-55170742D01*
X98679785Y-55204335D01*
X98722194Y-55232073D01*
X98754357Y-55252313D01*
X98773737Y-55263410D01*
X98777939Y-55265021D01*
X98792376Y-55261393D01*
X98821845Y-55251216D01*
X98862709Y-55235963D01*
X98911328Y-55217103D01*
X98964066Y-55196106D01*
X99017282Y-55174444D01*
X99067340Y-55153585D01*
X99110600Y-55135001D01*
X99143424Y-55120163D01*
X99162174Y-55110539D01*
X99164687Y-55108726D01*
X99170257Y-55095360D01*
X99178570Y-55064994D01*
X99188936Y-55020654D01*
X99200668Y-54965369D01*
X99213076Y-54902164D01*
X99219386Y-54868170D01*
X99231734Y-54802144D01*
X99243510Y-54742514D01*
X99254064Y-54692301D01*
X99262751Y-54654529D01*
X99268922Y-54632220D01*
X99270884Y-54627780D01*
X99284151Y-54623358D01*
X99314053Y-54619784D01*
X99357247Y-54617050D01*
X99410388Y-54615148D01*
X99470132Y-54614068D01*
X99533135Y-54613804D01*
X99596054Y-54614345D01*
X99655545Y-54615685D01*
X99708263Y-54617814D01*
X99750864Y-54620725D01*
X99780005Y-54624408D01*
X99792342Y-54628856D01*
X99792453Y-54629085D01*
X99795774Y-54642702D01*
X99802184Y-54673328D01*
X99811093Y-54717988D01*
X99821915Y-54773704D01*
X99834060Y-54837501D01*
X99841833Y-54878936D01*
X99854602Y-54945794D01*
X99866657Y-55005984D01*
X99877374Y-55056621D01*
X99886130Y-55094819D01*
X99892302Y-55117695D01*
X99894560Y-55122919D01*
X99907878Y-55130608D01*
X99936247Y-55144139D01*
X99975946Y-55161953D01*
X100023250Y-55182490D01*
X100074437Y-55204187D01*
X100125784Y-55225486D01*
X100173568Y-55244825D01*
X100214066Y-55260643D01*
X100243556Y-55271380D01*
X100258314Y-55275476D01*
X100258495Y-55275480D01*
X100271688Y-55269923D01*
X100298929Y-55254341D01*
X100337623Y-55230365D01*
X100385174Y-55199625D01*
X100438986Y-55163752D01*
X100470821Y-55142075D01*
X100527135Y-55103763D01*
X100578686Y-55069298D01*
X100622851Y-55040383D01*
X100657010Y-55018723D01*
X100678543Y-55006021D01*
X100684049Y-55003472D01*
X100694306Y-55005702D01*
X100711876Y-55017061D01*
X100738077Y-55038703D01*
X100774225Y-55071782D01*
X100821636Y-55117450D01*
X100879629Y-55174867D01*
X100928522Y-55224194D01*
X100972230Y-55269240D01*
X101008790Y-55307902D01*
X101036238Y-55338077D01*
X101052610Y-55357666D01*
X101056440Y-55364107D01*
X101050880Y-55375701D01*
X101035266Y-55401479D01*
X101011197Y-55438977D01*
X100980272Y-55485733D01*
X100944091Y-55539284D01*
X100917817Y-55577576D01*
X100878771Y-55634519D01*
X100843631Y-55686484D01*
X100814055Y-55730960D01*
X100791701Y-55765437D01*
X100778228Y-55787404D01*
X100775012Y-55793807D01*
X100777397Y-55807623D01*
X100786342Y-55836374D01*
X100800379Y-55876330D01*
X100818039Y-55923760D01*
X100837853Y-55974933D01*
X100858353Y-56026118D01*
X100878071Y-56073585D01*
X100895537Y-56113603D01*
X100909283Y-56142440D01*
X100917666Y-56156194D01*
X100930572Y-56161326D01*
X100960616Y-56169377D01*
X101004928Y-56179701D01*
X101060641Y-56191654D01*
X101124888Y-56204589D01*
X101176565Y-56214475D01*
X101245109Y-56227460D01*
X101307114Y-56239507D01*
X101359750Y-56250043D01*
X101400188Y-56258493D01*
X101425599Y-56264282D01*
X101433105Y-56266539D01*
X101435819Y-56278049D01*
X101438192Y-56307391D01*
X101440134Y-56352082D01*
X101441555Y-56409635D01*
X101442365Y-56477566D01*
X101442520Y-56525977D01*
X101442484Y-56604147D01*
X101442484Y-56604147D01*
G37*
X101442484Y-56604147D02*
X101442235Y-56664434D01*
X101441560Y-56709276D01*
X101440249Y-56741110D01*
X101438090Y-56762374D01*
X101434870Y-56775504D01*
X101430379Y-56782939D01*
X101424405Y-56787116D01*
X101419660Y-56789223D01*
X101403314Y-56793781D01*
X101370149Y-56801230D01*
X101323359Y-56810917D01*
X101266135Y-56822192D01*
X101201667Y-56834402D01*
X101168615Y-56840490D01*
X101102385Y-56852810D01*
X101042412Y-56864411D01*
X100991746Y-56874666D01*
X100953435Y-56882950D01*
X100930531Y-56888637D01*
X100925768Y-56890334D01*
X100918192Y-56901478D01*
X100904727Y-56927875D01*
X100886931Y-56965871D01*
X100866363Y-57011814D01*
X100844583Y-57062051D01*
X100823150Y-57112929D01*
X100803623Y-57160795D01*
X100787561Y-57201996D01*
X100776523Y-57232880D01*
X100772070Y-57249793D01*
X100772045Y-57250468D01*
X100777597Y-57261652D01*
X100793163Y-57287127D01*
X100817176Y-57324484D01*
X100848073Y-57371317D01*
X100884286Y-57425217D01*
X100914285Y-57469256D01*
X100953475Y-57526889D01*
X100988529Y-57579263D01*
X101017882Y-57623973D01*
X101039970Y-57658615D01*
X101053230Y-57680784D01*
X101056440Y-57687804D01*
X101049435Y-57698683D01*
X101030040Y-57721061D01*
X101000689Y-57752537D01*
X100963814Y-57790709D01*
X100921849Y-57833178D01*
X100877225Y-57877541D01*
X100832376Y-57921399D01*
X100789734Y-57962349D01*
X100751732Y-57997991D01*
X100720803Y-58025924D01*
X100699380Y-58043746D01*
X100690314Y-58049160D01*
X100677412Y-58044499D01*
X100651857Y-58030222D01*
X100612966Y-58005881D01*
X100560052Y-57971030D01*
X100492432Y-57925225D01*
X100409421Y-57868019D01*
X100368813Y-57839796D01*
X100329919Y-57813604D01*
X100296086Y-57792466D01*
X100271332Y-57778792D01*
X100260500Y-57774840D01*
X100247568Y-57778682D01*
X100219671Y-57789189D01*
X100180438Y-57804829D01*
X100133498Y-57824069D01*
X100082481Y-57845378D01*
X100031015Y-57867223D01*
X99982729Y-57888073D01*
X99941253Y-57906396D01*
X99910214Y-57920660D01*
X99893243Y-57929334D01*
X99891411Y-57930643D01*
X99888129Y-57941712D01*
X99881768Y-57969929D01*
X99872912Y-58012456D01*
X99862141Y-58066451D01*
X99850038Y-58129077D01*
X99842044Y-58171405D01*
X99829347Y-58238615D01*
X99817616Y-58299562D01*
X99807443Y-58351267D01*
X99799418Y-58390748D01*
X99794133Y-58415024D01*
X99792518Y-58421063D01*
X99787564Y-58425526D01*
X99775108Y-58428983D01*
X99753002Y-58431552D01*
X99719097Y-58433347D01*
X99671244Y-58434482D01*
X99607295Y-58435075D01*
X99528364Y-58435239D01*
X99448891Y-58435145D01*
X99387390Y-58434756D01*
X99341514Y-58433914D01*
X99308914Y-58432462D01*
X99287244Y-58430240D01*
X99274156Y-58427092D01*
X99267302Y-58422859D01*
X99264358Y-58417460D01*
X99260270Y-58399851D01*
X99253835Y-58367880D01*
X99246173Y-58327206D01*
X99242743Y-58308240D01*
X99224856Y-58209241D01*
X99209776Y-58128659D01*
X99197132Y-58064839D01*
X99186555Y-58016127D01*
X99177671Y-57980871D01*
X99170112Y-57957416D01*
X99163505Y-57944108D01*
X99160267Y-57940607D01*
X99146814Y-57933639D01*
X99118375Y-57920890D01*
X99078529Y-57903817D01*
X99030858Y-57883878D01*
X98978941Y-57862529D01*
X98926358Y-57841226D01*
X98876691Y-57821427D01*
X98833518Y-57804588D01*
X98800421Y-57792167D01*
X98780978Y-57785619D01*
X98777780Y-57784971D01*
X98767493Y-57790501D01*
X98742970Y-57805990D01*
X98706671Y-57829816D01*
X98661054Y-57860352D01*
X98608579Y-57895975D01*
X98577784Y-57917080D01*
X98521904Y-57954956D01*
X98470762Y-57988590D01*
X98426986Y-58016338D01*
X98393201Y-58036554D01*
X98372037Y-58047592D01*
X98366865Y-58049160D01*
X98354252Y-58042093D01*
X98329458Y-58022016D01*
X98294338Y-57990612D01*
X98250745Y-57949568D01*
X98200533Y-57900566D01*
X98172274Y-57872349D01*
X98117562Y-57817152D01*
X98075735Y-57774372D01*
X98045247Y-57742120D01*
X98024549Y-57718507D01*
X98012097Y-57701644D01*
X98006343Y-57689642D01*
X98005742Y-57680613D01*
X98008747Y-57672667D01*
X98008767Y-57672630D01*
X98018082Y-57657555D01*
X98037030Y-57628654D01*
X98063681Y-57588811D01*
X98096102Y-57540909D01*
X98132362Y-57487830D01*
X98141734Y-57474186D01*
X98177797Y-57421154D01*
X98209562Y-57373319D01*
X98235317Y-57333349D01*
X98253352Y-57303917D01*
X98261954Y-57287692D01*
X98262440Y-57285834D01*
X98258001Y-57271801D01*
X98246047Y-57244364D01*
X98228627Y-57208048D01*
X98215713Y-57182543D01*
X98195934Y-57141771D01*
X98182565Y-57109111D01*
X98177024Y-57088289D01*
X98177887Y-57083169D01*
X98189198Y-57077182D01*
X98216925Y-57064519D01*
X98258684Y-57046212D01*
X98312089Y-57023290D01*
X98374753Y-56996783D01*
X98444290Y-56967721D01*
X98470994Y-56956646D01*
X98549504Y-56924134D01*
X98628394Y-56891428D01*
X98703895Y-56860092D01*
X98772241Y-56831693D01*
X98829663Y-56807793D01*
X98872394Y-56789959D01*
X98875230Y-56788772D01*
X98921672Y-56769757D01*
X98962008Y-56754040D01*
X98992202Y-56743139D01*
X99008218Y-56738570D01*
X99008958Y-56738520D01*
X99021052Y-56746285D01*
X99040576Y-56766827D01*
X99063690Y-56796017D01*
X99068041Y-56802020D01*
X99141292Y-56890650D01*
X99220850Y-56960091D01*
X99307234Y-57010630D01*
X99400967Y-57042557D01*
X99502567Y-57056160D01*
X99527360Y-57056728D01*
X99628972Y-57048262D01*
X99722331Y-57021726D01*
X99809089Y-56976461D01*
X99890896Y-56911808D01*
X99891437Y-56911301D01*
X99958596Y-56835340D01*
X100008725Y-56750633D01*
X100041722Y-56659681D01*
X100057484Y-56564980D01*
X100055908Y-56469029D01*
X100036890Y-56374325D01*
X100000328Y-56283368D01*
X99946119Y-56198655D01*
X99921992Y-56169864D01*
X99845826Y-56099157D01*
X99760967Y-56046804D01*
X99667743Y-56012951D01*
X99566484Y-55997744D01*
X99533505Y-55996840D01*
X99431999Y-56004084D01*
X99340991Y-56026567D01*
X99258368Y-56065414D01*
X99182017Y-56121750D01*
X99109824Y-56196701D01*
X99075070Y-56240910D01*
X99049769Y-56272943D01*
X99027459Y-56297443D01*
X99011752Y-56310581D01*
X99008208Y-56311800D01*
X98995730Y-56308033D01*
X98966769Y-56297334D01*
X98923595Y-56280599D01*
X98868476Y-56258727D01*
X98803679Y-56232616D01*
X98731474Y-56203165D01*
X98671350Y-56178403D01*
X98591414Y-56145366D01*
X98514074Y-56113446D01*
X98442203Y-56083823D01*
X98378676Y-56057682D01*
X98326365Y-56036205D01*
X98288145Y-56020574D01*
X98272600Y-56014264D01*
X98225669Y-55995048D01*
X98195716Y-55979777D01*
X98181092Y-55964278D01*
X98180148Y-55944377D01*
X98191235Y-55915901D01*
X98212703Y-55874677D01*
X98215422Y-55869571D01*
X98235531Y-55830498D01*
X98251346Y-55797345D01*
X98260753Y-55774683D01*
X98262440Y-55768021D01*
X98256928Y-55756178D01*
X98241470Y-55730165D01*
X98217687Y-55692519D01*
X98187199Y-55645778D01*
X98151625Y-55592479D01*
X98130360Y-55561116D01*
X98092754Y-55505655D01*
X98059313Y-55455765D01*
X98031648Y-55413895D01*
X98011366Y-55382492D01*
X98000076Y-55364001D01*
X97998280Y-55360186D01*
X98005151Y-55351283D01*
X98024458Y-55330081D01*
X98054248Y-55298626D01*
X98092568Y-55258963D01*
X98137462Y-55213140D01*
X98173161Y-55177078D01*
X98222463Y-55128185D01*
X98267836Y-55084517D01*
X98307107Y-55048057D01*
X98338104Y-55020792D01*
X98358653Y-55004706D01*
X98365705Y-55001159D01*
X98378861Y-55006736D01*
X98406015Y-55022363D01*
X98444554Y-55046392D01*
X98491865Y-55077171D01*
X98545333Y-55113050D01*
X98574365Y-55132941D01*
X98629663Y-55170742D01*
X98679785Y-55204335D01*
X98722194Y-55232073D01*
X98754357Y-55252313D01*
X98773737Y-55263410D01*
X98777939Y-55265021D01*
X98792376Y-55261393D01*
X98821845Y-55251216D01*
X98862709Y-55235963D01*
X98911328Y-55217103D01*
X98964066Y-55196106D01*
X99017282Y-55174444D01*
X99067340Y-55153585D01*
X99110600Y-55135001D01*
X99143424Y-55120163D01*
X99162174Y-55110539D01*
X99164687Y-55108726D01*
X99170257Y-55095360D01*
X99178570Y-55064994D01*
X99188936Y-55020654D01*
X99200668Y-54965369D01*
X99213076Y-54902164D01*
X99219386Y-54868170D01*
X99231734Y-54802144D01*
X99243510Y-54742514D01*
X99254064Y-54692301D01*
X99262751Y-54654529D01*
X99268922Y-54632220D01*
X99270884Y-54627780D01*
X99284151Y-54623358D01*
X99314053Y-54619784D01*
X99357247Y-54617050D01*
X99410388Y-54615148D01*
X99470132Y-54614068D01*
X99533135Y-54613804D01*
X99596054Y-54614345D01*
X99655545Y-54615685D01*
X99708263Y-54617814D01*
X99750864Y-54620725D01*
X99780005Y-54624408D01*
X99792342Y-54628856D01*
X99792453Y-54629085D01*
X99795774Y-54642702D01*
X99802184Y-54673328D01*
X99811093Y-54717988D01*
X99821915Y-54773704D01*
X99834060Y-54837501D01*
X99841833Y-54878936D01*
X99854602Y-54945794D01*
X99866657Y-55005984D01*
X99877374Y-55056621D01*
X99886130Y-55094819D01*
X99892302Y-55117695D01*
X99894560Y-55122919D01*
X99907878Y-55130608D01*
X99936247Y-55144139D01*
X99975946Y-55161953D01*
X100023250Y-55182490D01*
X100074437Y-55204187D01*
X100125784Y-55225486D01*
X100173568Y-55244825D01*
X100214066Y-55260643D01*
X100243556Y-55271380D01*
X100258314Y-55275476D01*
X100258495Y-55275480D01*
X100271688Y-55269923D01*
X100298929Y-55254341D01*
X100337623Y-55230365D01*
X100385174Y-55199625D01*
X100438986Y-55163752D01*
X100470821Y-55142075D01*
X100527135Y-55103763D01*
X100578686Y-55069298D01*
X100622851Y-55040383D01*
X100657010Y-55018723D01*
X100678543Y-55006021D01*
X100684049Y-55003472D01*
X100694306Y-55005702D01*
X100711876Y-55017061D01*
X100738077Y-55038703D01*
X100774225Y-55071782D01*
X100821636Y-55117450D01*
X100879629Y-55174867D01*
X100928522Y-55224194D01*
X100972230Y-55269240D01*
X101008790Y-55307902D01*
X101036238Y-55338077D01*
X101052610Y-55357666D01*
X101056440Y-55364107D01*
X101050880Y-55375701D01*
X101035266Y-55401479D01*
X101011197Y-55438977D01*
X100980272Y-55485733D01*
X100944091Y-55539284D01*
X100917817Y-55577576D01*
X100878771Y-55634519D01*
X100843631Y-55686484D01*
X100814055Y-55730960D01*
X100791701Y-55765437D01*
X100778228Y-55787404D01*
X100775012Y-55793807D01*
X100777397Y-55807623D01*
X100786342Y-55836374D01*
X100800379Y-55876330D01*
X100818039Y-55923760D01*
X100837853Y-55974933D01*
X100858353Y-56026118D01*
X100878071Y-56073585D01*
X100895537Y-56113603D01*
X100909283Y-56142440D01*
X100917666Y-56156194D01*
X100930572Y-56161326D01*
X100960616Y-56169377D01*
X101004928Y-56179701D01*
X101060641Y-56191654D01*
X101124888Y-56204589D01*
X101176565Y-56214475D01*
X101245109Y-56227460D01*
X101307114Y-56239507D01*
X101359750Y-56250043D01*
X101400188Y-56258493D01*
X101425599Y-56264282D01*
X101433105Y-56266539D01*
X101435819Y-56278049D01*
X101438192Y-56307391D01*
X101440134Y-56352082D01*
X101441555Y-56409635D01*
X101442365Y-56477566D01*
X101442520Y-56525977D01*
X101442484Y-56604147D01*
M02*
